<svg xmlns="http://www.w3.org/2000/svg" viewBox="0 0 150 43.766"><title>Recurso 31x1</title><g id="Capa_2" data-name="Capa 2"><g id="Capa_1-2" data-name="Capa 1"><path d="M.33,31.423l.706-.047a10.2,10.2,0,0,0,1.531-.212.523.523,0,0,0,.448-.541V17.431a17.565,17.565,0,0,0-.071-1.767,2.767,2.767,0,0,0-.283-1.059,1.366,1.366,0,0,0-.588-.566,4.584,4.584,0,0,0-.99-.329L0,13.474l.047-.189,8.292-2.261V30.717c0,.188.133.322.4.4a14.122,14.122,0,0,0,2,.259l.518.047.142.283H.188ZM5.371,7.773a3,3,0,0,1-2.5-1.06,3.468,3.468,0,0,1-.848-2.19,3.471,3.471,0,0,1,.848-2.191,3,3,0,0,1,2.5-1.06,3.005,3.005,0,0,1,2.5,1.06,3.472,3.472,0,0,1,.849,2.191,3.47,3.47,0,0,1-.849,2.19A3.005,3.005,0,0,1,5.371,7.773Z" fill="#fff"/><path d="M28.6,28.031l-.094-.094a15.757,15.757,0,0,1-3.275,3.109,6.97,6.97,0,0,1-4.121,1.32,7.319,7.319,0,0,1-3.275-.754,8.164,8.164,0,0,1-2.661-2.1,10.209,10.209,0,0,1-1.791-3.2,11.972,11.972,0,0,1-.66-4.028,10.892,10.892,0,0,1,1.061-4.971,11.112,11.112,0,0,1,2.685-3.486,10.737,10.737,0,0,1,3.6-2.049,12.171,12.171,0,0,1,3.863-.66,14.116,14.116,0,0,1,2.615.212,7.581,7.581,0,0,1,1.955.636H28.6V5.371A4.255,4.255,0,0,0,28.243,3.3a2.112,2.112,0,0,0-1.532-.754l-1.554-.283.047-.188L33.92,0V27.749a11.263,11.263,0,0,0,.047,1.154,1.691,1.691,0,0,0,.188.683,1.021,1.021,0,0,0,.4.377,2.608,2.608,0,0,0,.683.235l1.7.377-.047.189L28.6,32.413ZM24.309,29.3a4.834,4.834,0,0,0,2.473-.589A8.014,8.014,0,0,0,28.6,27.277V16.112a9.473,9.473,0,0,0-1.037-1.767,9.713,9.713,0,0,0-1.3-1.437,5.634,5.634,0,0,0-1.413-.942,3.49,3.49,0,0,0-1.437-.329,3.279,3.279,0,0,0-2.1.73,5.611,5.611,0,0,0-1.531,2,11.6,11.6,0,0,0-.918,2.944,19.681,19.681,0,0,0-.307,3.557,13.049,13.049,0,0,0,.4,3.322,8.722,8.722,0,0,0,1.154,2.661,5.961,5.961,0,0,0,1.814,1.791A4.407,4.407,0,0,0,24.309,29.3Z" fill="#fff"/><path d="M47.346,32.413a9.479,9.479,0,0,1-3.91-.8,9.691,9.691,0,0,1-3.11-2.191,9.841,9.841,0,0,1-2.049-3.3,11.3,11.3,0,0,1-.73-4.075,11.688,11.688,0,0,1,.824-4.4,10.892,10.892,0,0,1,2.285-3.557,10.753,10.753,0,0,1,7.774-3.25,10.049,10.049,0,0,1,3.533.565,7.546,7.546,0,0,1,2.52,1.507,6.149,6.149,0,0,1,1.508,2.12,6.269,6.269,0,0,1,.495,2.45,2.837,2.837,0,0,1-.024.4c-.016.11-.04.244-.071.4q-3.3,0-6.03-.047-1.179,0-2.332-.023t-2.1-.047q-.943-.024-1.649-.024h-.943a5.9,5.9,0,0,0-.094,1.136v1.135a11.674,11.674,0,0,0,.519,3.6,8.16,8.16,0,0,0,1.46,2.744,6.7,6.7,0,0,0,2.261,1.775,6.623,6.623,0,0,0,2.921.638,7.113,7.113,0,0,0,3.51-.825,6.774,6.774,0,0,0,2.568-2.85l.329.142a13.206,13.206,0,0,1-3.792,5.017A9,9,0,0,1,47.346,32.413Zm3.91-14.84a14.977,14.977,0,0,0-.164-2.191,8.406,8.406,0,0,0-.542-2,4,4,0,0,0-1.013-1.461,2.355,2.355,0,0,0-1.626-.565,3.515,3.515,0,0,0-2.85,1.767,10.047,10.047,0,0,0-1.625,4.5Z" fill="#fff"/><path d="M58.511,31.423l.707-.047a10.218,10.218,0,0,0,1.531-.212.524.524,0,0,0,.448-.541V17.431q0-1.083-.071-1.767a2.767,2.767,0,0,0-.283-1.059,1.368,1.368,0,0,0-.589-.566,4.573,4.573,0,0,0-.989-.329l-1.084-.236.048-.189,8.385-2.261-.141,4.051.094.047q.753-.659,1.672-1.389a21.268,21.268,0,0,1,1.932-1.366,10.62,10.62,0,0,1,2.167-1.037,7.1,7.1,0,0,1,2.332-.4,5.061,5.061,0,0,1,3.722,1.507,4.651,4.651,0,0,1,1.154,2.191A12.1,12.1,0,0,1,79.9,17.62V30.67a.41.41,0,0,0,.048.188.527.527,0,0,0,.283.188,3.374,3.374,0,0,0,.73.165c.329.047.777.1,1.343.165l.517.047.142.283H71.843l.142-.283.848-.047a3.8,3.8,0,0,0,1.484-.283.563.563,0,0,0,.259-.47V18.279A3.944,3.944,0,0,0,73.54,15.17a4.26,4.26,0,0,0-2.874-.895,5.941,5.941,0,0,0-2.355.424,8.319,8.319,0,0,0-1.791,1.036V30.717q0,.282.354.423a7.4,7.4,0,0,0,1.719.236l.707.047.094.283H58.37Z" fill="#fff"/><path d="M92.053,32.224A5.516,5.516,0,0,1,87.9,30.811a6.068,6.068,0,0,1-1.307-4.429l.233-12.343-3.814-.047.942-1.555,3.34-2.4L91.82,6.6l.186.047-.047,4.9,7.067.048-.8,2.261H91.912L91.679,25.77a4.2,4.2,0,0,0,.776,2.921,3.364,3.364,0,0,0,2.661.942,5.6,5.6,0,0,0,2.308-.424,5.87,5.87,0,0,0,1.6-1.037l.188.189a18.914,18.914,0,0,1-3.321,2.756A6.945,6.945,0,0,1,92.053,32.224Z" fill="#fff"/><path d="M103.549,43.766a3.668,3.668,0,0,1-2.19-.73,2.473,2.473,0,0,1-1.013-2.144,2.694,2.694,0,0,1,2.732-2.685,2.735,2.735,0,0,1,2.191.848,3.924,3.924,0,0,1,.919,1.837,2.241,2.241,0,0,0,1.507-1.13,16.94,16.94,0,0,0,1.225-2.733l1.743-4.9h-.612L102.23,14.652q-.377-.849-.636-1.343a3.749,3.749,0,0,0-.541-.8,1.5,1.5,0,0,0-.66-.424,4.534,4.534,0,0,0-.942-.165l-.754-.047-.142-.282H110.38l-.141.282-.8.047q-1.413.094-1.7.566t.236,1.7l4.994,11.59,2.874-8.009a23.906,23.906,0,0,0,.895-2.85,3.185,3.185,0,0,0,.023-1.673,1.415,1.415,0,0,0-.895-.871,8.314,8.314,0,0,0-1.908-.4l-.66-.094-.141-.282H121.5l-.142.282-.753.094a3.534,3.534,0,0,0-1.3.283,2.384,2.384,0,0,0-.919.872,10.03,10.03,0,0,0-.895,1.837q-.471,1.2-1.225,3.227l-4.993,13.521-1.932,5.748a13.64,13.64,0,0,1-2.4,4.758A4.338,4.338,0,0,1,103.549,43.766Z" fill="#fff"/><path d="M136.448,32.224a3.317,3.317,0,0,1-2.593-1.06,5.288,5.288,0,0,1-1.191-2.992l-.047-.047a24.413,24.413,0,0,1-3.076,2.851,5.463,5.463,0,0,1-3.406,1.2,4.794,4.794,0,0,1-1.915-.377,5.374,5.374,0,0,1-1.538-.989,4.485,4.485,0,0,1-1.041-1.437,3.974,3.974,0,0,1-.378-1.672,4.932,4.932,0,0,1,.544-2.286,5.992,5.992,0,0,1,1.868-2.025,15.279,15.279,0,0,1,3.572-1.814,52.56,52.56,0,0,1,5.605-1.7l.047-1.6a6.761,6.761,0,0,0-1.2-4.569,4.349,4.349,0,0,0-3.586-1.6,4.589,4.589,0,0,0-2.141.425c-.536.282-.8.55-.8.8a.862.862,0,0,0,.212.425l.495.659a5.256,5.256,0,0,1,.494.8,1.972,1.972,0,0,1,.213.895,2.3,2.3,0,0,1-.748,1.743,2.738,2.738,0,0,1-1.961.707,2.946,2.946,0,0,1-1.845-.589,1.979,1.979,0,0,1-.77-1.673,2.916,2.916,0,0,1,1.036-2.12,9.689,9.689,0,0,1,2.591-1.719,17.142,17.142,0,0,1,3.345-1.154,14.2,14.2,0,0,1,3.251-.424q3.863,0,5.394,1.649t1.343,5.653L137.8,27a2.747,2.747,0,0,0,.422,1.955,1.621,1.621,0,0,0,1.317.636,1.6,1.6,0,0,0,1.06-.424,7.45,7.45,0,0,0,.919-.942l.282.141q-.377.471-.942,1.154a10.477,10.477,0,0,1-1.248,1.272,7.954,7.954,0,0,1-1.481,1.013A3.531,3.531,0,0,1,136.448,32.224Zm-7.084-3.062a4.5,4.5,0,0,0,3.206-1.555L132.9,20.4a16.178,16.178,0,0,0-3.152.99,7.879,7.879,0,0,0-1.987,1.225,3.575,3.575,0,0,0-1.028,1.46,5,5,0,0,0-.287,1.7,3.55,3.55,0,0,0,.837,2.45A2.672,2.672,0,0,0,129.364,29.162Z" fill="#fff"/><path d="M146.844,32.224a3.06,3.06,0,0,1-2.285-.942,3.122,3.122,0,0,1-.919-2.262,2.935,2.935,0,0,1,.919-2.143,3.1,3.1,0,0,1,2.285-.919,3.01,3.01,0,0,1,2.237.942A2.966,2.966,0,0,1,150,29.02a3.122,3.122,0,0,1-.919,2.262A3.006,3.006,0,0,1,146.844,32.224Z" fill="#fff"/><path d="M1.3,43.4l.285-.028a.913.913,0,0,0,.236-.05c.045-.021.068-.042.068-.065v-3.9c0-.022-.021-.04-.062-.054a2.25,2.25,0,0,0-.307-.048L1.3,39.233l-.019-.041h1.87a2.573,2.573,0,0,1,1.288.251.842.842,0,0,1,.421.776.964.964,0,0,1-.123.483,1.093,1.093,0,0,1-.353.371,1.755,1.755,0,0,1-.556.234,2.983,2.983,0,0,1-.729.082c-.073,0-.142,0-.207-.01s-.123-.015-.174-.024V43.28c0,.023.019.042.058.058a1.375,1.375,0,0,0,.3.044l.278.021.02.04h-2.1Zm1.786-2.089a.834.834,0,0,0,.644-.271,1.042,1.042,0,0,0,.249-.733,1.166,1.166,0,0,0-.223-.776.912.912,0,0,0-.715-.268l-.317.014v1.98c.047.009.1.02.149.034A.907.907,0,0,0,3.084,41.314Z" fill="#fff"/><path d="M8.508,43.525a3.574,3.574,0,0,1-.7-.065,2.9,2.9,0,0,1-.592-.173L7.149,42.2h.039l.258.521a1.439,1.439,0,0,0,.45.552,1.106,1.106,0,0,0,.638.179.845.845,0,0,0,.637-.237.883.883,0,0,0,.23-.639.825.825,0,0,0-.078-.373.838.838,0,0,0-.213-.272,1.429,1.429,0,0,0-.32-.2c-.123-.056-.254-.112-.392-.166s-.295-.122-.431-.19a1.612,1.612,0,0,1-.356-.241,1.079,1.079,0,0,1-.242-.326,1.024,1.024,0,0,1-.091-.452,1.24,1.24,0,0,1,.1-.486,1.227,1.227,0,0,1,.272-.4,1.275,1.275,0,0,1,.421-.268,1.442,1.442,0,0,1,.543-.1,2.167,2.167,0,0,1,.509.058c.157.039.29.076.4.112l.258-.1.02,1.184H9.764l-.544-1a.978.978,0,0,0-.621-.189.732.732,0,0,0-.525.2.665.665,0,0,0-.207.5.645.645,0,0,0,.078.326.848.848,0,0,0,.207.238,1.525,1.525,0,0,0,.3.18c.117.052.24.1.369.152a3.568,3.568,0,0,1,.466.2,1.612,1.612,0,0,1,.372.269,1.125,1.125,0,0,1,.249.367,1.273,1.273,0,0,1,.091.509,1.3,1.3,0,0,1-.11.523,1.459,1.459,0,0,1-.307.449,1.516,1.516,0,0,1-1.078.434Z" fill="#fff"/><path d="M12.346,43.4l.252-.028a.723.723,0,0,0,.236-.047c.046-.023.068-.046.068-.068V39.355c0-.023-.02-.041-.061-.055a2.15,2.15,0,0,0-.307-.047l-.188-.02-.02-.041h1.987l-.019.041-.252.026a.753.753,0,0,0-.237.048c-.045.023-.068.045-.068.068V43.28c0,.023.021.041.062.054a1.956,1.956,0,0,0,.307.048l.181.021.02.04H12.326Z" fill="#fff"/><path d="M18.9,43.525a2.644,2.644,0,0,1-.961-.167,2.192,2.192,0,0,1-.734-.455,2.024,2.024,0,0,1-.473-.687,2.213,2.213,0,0,1-.168-.868,2.386,2.386,0,0,1,.162-.881,2.006,2.006,0,0,1,.472-.714,2.269,2.269,0,0,1,.757-.48,2.764,2.764,0,0,1,1.016-.177,2.182,2.182,0,0,1,.593.082,1.944,1.944,0,0,1,.449.177l.415-.143.039,1.367H20.43l-.654-1.21a1.079,1.079,0,0,0-.324-.136,1.817,1.817,0,0,0-.491-.062,1.231,1.231,0,0,0-.635.164,1.426,1.426,0,0,0-.469.453,2.2,2.2,0,0,0-.288.678,3.434,3.434,0,0,0-.1.838,3.27,3.27,0,0,0,.113.889,2.169,2.169,0,0,0,.314.678,1.452,1.452,0,0,0,.466.429,1.14,1.14,0,0,0,.57.15,1.331,1.331,0,0,0,.867-.268,2.239,2.239,0,0,0,.57-.752l.2-.4h.039l-.22,1.2-.214.035a1.647,1.647,0,0,1-.233.085c-.1.029-.207.058-.323.085s-.238.048-.363.064A2.813,2.813,0,0,1,18.9,43.525Z" fill="#fff"/><path d="M25.083,43.525a2.325,2.325,0,0,1-.873-.16,2,2,0,0,1-1.146-1.143,2.4,2.4,0,0,1-.162-.9,2.056,2.056,0,0,1,.178-.844,2.3,2.3,0,0,1,.486-.707,2.344,2.344,0,0,1,.718-.487,2.146,2.146,0,0,1,.871-.18,2.291,2.291,0,0,1,.873.163,2.019,2.019,0,0,1,1.146,1.157,2.434,2.434,0,0,1,.162.905,2.057,2.057,0,0,1-.178.837,2.233,2.233,0,0,1-.486.7,2.421,2.421,0,0,1-.715.48A2.14,2.14,0,0,1,25.083,43.525Zm.059-.075a1.052,1.052,0,0,0,.957-.528,3.15,3.15,0,0,0,.324-1.611,2.948,2.948,0,0,0-.353-1.574,1.09,1.09,0,0,0-.967-.559,1.064,1.064,0,0,0-.968.532,3.126,3.126,0,0,0-.327,1.607,2.942,2.942,0,0,0,.353,1.581A1.1,1.1,0,0,0,25.142,43.45Z" fill="#fff"/><path d="M30.235,39.8h-.006l.006,3.34c0,.059.04.112.12.157a1.266,1.266,0,0,0,.463.095l.123.007.019.04H29.53l.019-.04.13-.007a.64.64,0,0,0,.372-.112.265.265,0,0,0,.1-.194l.02-3.361a1.58,1.58,0,0,0-.3-.32.843.843,0,0,0-.4-.17l-.072-.006-.013-.041h1.489l2.3,2.9h.007l-.007-2.6c0-.059-.04-.113-.12-.16a1.205,1.205,0,0,0-.462-.1l-.117-.006-.019-.041h1.424l-.02.041-.129.006a.611.611,0,0,0-.372.116.274.274,0,0,0-.1.2l-.026,3.932h-.064Z" fill="#fff"/><path d="M38.177,43.552a1.907,1.907,0,0,1-1.285-.353,1.451,1.451,0,0,1-.4-1.136V39.341c0-.022-.02-.039-.058-.051a2.189,2.189,0,0,0-.3-.037l-.22-.02-.019-.041h2.045l-.019.041-.285.026a.952.952,0,0,0-.236.041c-.046.019-.068.039-.068.062v2.5a1.542,1.542,0,0,0,.288,1.031,1.279,1.279,0,0,0,1.744-.027,1.691,1.691,0,0,0,.3-1.113L39.659,39.5c0-.059-.04-.114-.12-.163a1.123,1.123,0,0,0-.463-.1h-.123l-.019-.041h1.424l-.02.041h-.123a.6.6,0,0,0-.372.118.285.285,0,0,0-.1.2L39.73,41.77a3.161,3.161,0,0,1-.094.759,1.458,1.458,0,0,1-.272.557,1.163,1.163,0,0,1-.475.347A1.877,1.877,0,0,1,38.177,43.552Z" fill="#fff"/><path d="M43.426,43.4l.291-.028a.723.723,0,0,0,.236-.047c.046-.023.068-.046.068-.068V39.253h-.213a1.01,1.01,0,0,0-.431.136,1.687,1.687,0,0,0-.356.279,2.2,2.2,0,0,0-.278.35,3.088,3.088,0,0,0-.2.351l-.046.088h-.045l.188-1.265h3.63L46.4,40.45h-.038l-.039-.088a3.2,3.2,0,0,0-.2-.385,2.074,2.074,0,0,0-.275-.353,1.38,1.38,0,0,0-.346-.262.944.944,0,0,0-.418-.109h-.22V43.28c0,.023.02.041.062.054a1.956,1.956,0,0,0,.307.048l.22.021.02.04H43.406Z" fill="#fff"/><path d="M48.6,43.4l.285-.028a.89.89,0,0,0,.217-.047c.058-.023.087-.046.087-.068V39.348c0-.022-.02-.041-.061-.054a2,2,0,0,0-.308-.048l-.214-.013-.019-.041,1.935-.007a2.379,2.379,0,0,1,1.259.268.9.9,0,0,1,.424.82.923.923,0,0,1-.272.664,1.329,1.329,0,0,1-.725.37l.842,1.395q.116.2.207.327a1.292,1.292,0,0,0,.175.207.511.511,0,0,0,.178.112.907.907,0,0,0,.216.048l.072.007.025.04h-1.4l-.052-.109-1.087-2.02c-.061-.014-.12-.03-.178-.047s-.118-.039-.178-.062V43.28c0,.046.121.08.362.1l.246.021.02.04H48.578Zm1.748-2.212a1,1,0,0,0,.721-.244.943.943,0,0,0,.256-.715.968.968,0,0,0-.269-.721,1.036,1.036,0,0,0-.786-.252h-.246v1.878l.165.038A.733.733,0,0,0,50.345,41.191Z" fill="#fff"/><path d="M55.024,43.4l.252-.028a.731.731,0,0,0,.237-.047c.045-.023.068-.046.068-.068V39.355c0-.023-.021-.041-.062-.055a2.15,2.15,0,0,0-.307-.047l-.188-.02-.019-.041h1.987l-.02.041-.252.026a.753.753,0,0,0-.237.048c-.045.023-.068.045-.068.068V43.28c0,.023.021.041.062.054a1.956,1.956,0,0,0,.307.048l.182.021.019.04h-1.98Z" fill="#fff"/><path d="M61.58,43.525a2.648,2.648,0,0,1-.961-.167,2.192,2.192,0,0,1-.734-.455,2.024,2.024,0,0,1-.473-.687,2.213,2.213,0,0,1-.168-.868,2.386,2.386,0,0,1,.162-.881,2.006,2.006,0,0,1,.472-.714,2.269,2.269,0,0,1,.757-.48,2.766,2.766,0,0,1,1.017-.177,2.181,2.181,0,0,1,.592.082,1.973,1.973,0,0,1,.45.177l.414-.143.039,1.367h-.039l-.654-1.21a1.083,1.083,0,0,0-.323-.136,1.829,1.829,0,0,0-.492-.062,1.231,1.231,0,0,0-.635.164,1.426,1.426,0,0,0-.469.453,2.2,2.2,0,0,0-.288.678,3.434,3.434,0,0,0-.1.838,3.27,3.27,0,0,0,.113.889,2.169,2.169,0,0,0,.314.678,1.452,1.452,0,0,0,.466.429,1.14,1.14,0,0,0,.57.15,1.331,1.331,0,0,0,.867-.268,2.239,2.239,0,0,0,.57-.752l.2-.4h.039l-.22,1.2-.214.035a1.647,1.647,0,0,1-.233.085c-.1.029-.207.058-.323.085s-.238.048-.363.064A2.8,2.8,0,0,1,61.58,43.525Z" fill="#fff"/><path d="M65.6,43.4l.252-.028a.723.723,0,0,0,.236-.047c.046-.023.068-.046.068-.068V39.355c0-.023-.02-.041-.061-.055a2.174,2.174,0,0,0-.308-.047l-.187-.02-.02-.041h1.987l-.019.041-.253.026a.745.745,0,0,0-.236.048c-.045.023-.068.045-.068.068V43.28c0,.023.021.041.062.054a1.956,1.956,0,0,0,.307.048l.181.021.02.04H65.58Z" fill="#fff"/><path d="M72,43.525a2.331,2.331,0,0,1-.874-.16,2,2,0,0,1-1.146-1.143,2.421,2.421,0,0,1-.161-.9A2.056,2.056,0,0,1,70,40.477a2.3,2.3,0,0,1,.485-.707,2.356,2.356,0,0,1,.718-.487,2.146,2.146,0,0,1,.871-.18,2.3,2.3,0,0,1,.874.163,2.021,2.021,0,0,1,1.145,1.157,2.434,2.434,0,0,1,.162.905,2.04,2.04,0,0,1-.178.837,2.23,2.23,0,0,1-.485.7,2.425,2.425,0,0,1-.716.48A2.135,2.135,0,0,1,72,43.525Zm.058-.075a1.054,1.054,0,0,0,.958-.528,3.151,3.151,0,0,0,.323-1.611,2.949,2.949,0,0,0-.352-1.574,1.091,1.091,0,0,0-.968-.559,1.065,1.065,0,0,0-.968.532,3.138,3.138,0,0,0-.326,1.607,2.943,2.943,0,0,0,.352,1.581A1.1,1.1,0,0,0,72.059,43.45Zm.382-5.748h.751l-1.379,1.272h-.032Z" fill="#fff"/><path d="M77.153,39.8h-.007l.007,3.34c0,.059.039.112.119.157a1.266,1.266,0,0,0,.463.095l.123.007.019.04h-1.43l.019-.04.13-.007a.64.64,0,0,0,.372-.112.265.265,0,0,0,.1-.194l.02-3.361a1.553,1.553,0,0,0-.3-.32.834.834,0,0,0-.4-.17l-.071-.006-.013-.041h1.488l2.3,2.9H80.1L80.1,39.5c0-.059-.041-.113-.12-.16a1.206,1.206,0,0,0-.463-.1l-.117-.006-.019-.041H80.8l-.019.041-.13.006a.616.616,0,0,0-.372.116.272.272,0,0,0-.1.2l-.026,3.932h-.065Z" fill="#fff"/></g></g></svg>